<?xml version="1.0" standalone="no"?>
<!DOCTYPE svg PUBLIC "-//W3C//DTD SVG 20010904//EN"
 "http://www.w3.org/TR/2001/REC-SVG-20010904/DTD/svg10.dtd">
<svg version="1.0" xmlns="http://www.w3.org/2000/svg"
 width="260.000000pt" height="260.000000pt" viewBox="0 0 260.000000 260.000000"
 preserveAspectRatio="xMidYMid meet">
<metadata>
Created by potrace 1.11, written by Peter Selinger 2001-2013
</metadata>
<g transform="translate(0.000000,260.000000) scale(0.100000,-0.100000)"
fill="#000000" stroke="none">
<path d="M425 2586 c-196 -48 -357 -208 -409 -406 -12 -46 -15 -193 -15 -885
l0 -830 23 -72 c13 -40 36 -94 51 -120 42 -73 150 -174 225 -211 132 -64 101
-62 1021 -59 459 1 843 5 854 9 11 3 44 15 73 26 164 63 296 214 337 388 21
88 20 1673 -1 1754 -36 136 -133 270 -249 339 -31 19 -91 45 -133 57 l-77 23
-825 -1 c-615 0 -838 -3 -875 -12z"/>
</g>
</svg>
